<?xml version="1.0" encoding="UTF-8"?>
<svg width="800px" height="800px" viewBox="0 0 100 100" version="1.1" xmlns="http://www.w3.org/2000/svg">
    <g stroke="none" stroke-width="1" fill="none" fill-rule="evenodd">
        <path d="M50 10 L55 15 L55 25 L60 30 L70 30 L75 35 L70 40 L70 50 L75 55 L70 60 L60 60 L55 65 L55 75 L50 80 L45 75 L45 65 L40 60 L30 60 L25 55 L30 50 L30 40 L25 35 L30 30 L40 30 L45 25 L45 15 Z" 
              fill="#616161"/>
        <circle cx="50" cy="45" r="20" fill="#757575"/>
        <circle cx="50" cy="45" r="10" fill="#42A5F5"/>
    </g>
</svg> 